<mxfile host="app.diagrams.net" modified="2023-07-31T08:06:47.149Z" agent="Mozilla/5.0 (Windows NT 10.0; Win64; x64) AppleWebKit/537.36 (KHTML, like Gecko) Chrome/114.0.0.0 Safari/537.36" etag="Py0MUaOV8rUkq4tzQE59" version="21.6.5" type="github">
  <diagram name="Page-1" id="ZID3JqCsmiJbmkB0adZt">
    <mxGraphModel dx="1499" dy="679" grid="1" gridSize="10" guides="1" tooltips="1" connect="1" arrows="1" fold="1" page="1" pageScale="1" pageWidth="2336" pageHeight="1654" math="0" shadow="0">
      <root>
        <mxCell id="0" />
        <mxCell id="1" parent="0" />
        <mxCell id="4yeaxxSt-B0u1ZguV_Wh-1" value="" style="shape=image;html=1;verticalAlign=top;verticalLabelPosition=bottom;labelBackgroundColor=#ffffff;imageAspect=0;aspect=fixed;image=https://cdn2.iconfinder.com/data/icons/business-and-education-1/512/133_Solar_Panel_Energy_technology_smart_city_technology_smart-128.png" vertex="1" parent="1">
          <mxGeometry x="120" y="40" width="128" height="128" as="geometry" />
        </mxCell>
        <mxCell id="4yeaxxSt-B0u1ZguV_Wh-2" value="" style="shape=image;html=1;verticalAlign=top;verticalLabelPosition=bottom;labelBackgroundColor=#ffffff;imageAspect=0;aspect=fixed;image=https://cdn3.iconfinder.com/data/icons/energy-and-power-glyph-24-px/24/Automotive_battery_battery_charging_car_battery_truck_battery_vehicle_battery-128.png" vertex="1" parent="1">
          <mxGeometry x="128" y="500" width="78" height="78" as="geometry" />
        </mxCell>
        <mxCell id="4yeaxxSt-B0u1ZguV_Wh-3" value="" style="shape=image;html=1;verticalAlign=top;verticalLabelPosition=bottom;labelBackgroundColor=#ffffff;imageAspect=0;aspect=fixed;image=https://cdn3.iconfinder.com/data/icons/energy-and-power-glyph-24-px/24/Automotive_battery_battery_charging_car_battery_truck_battery_vehicle_battery-128.png" vertex="1" parent="1">
          <mxGeometry x="206" y="500" width="78" height="78" as="geometry" />
        </mxCell>
        <mxCell id="4yeaxxSt-B0u1ZguV_Wh-4" value="" style="shape=image;html=1;verticalAlign=top;verticalLabelPosition=bottom;labelBackgroundColor=#ffffff;imageAspect=0;aspect=fixed;image=https://cdn3.iconfinder.com/data/icons/energy-and-power-glyph-24-px/24/Automotive_battery_battery_charging_car_battery_truck_battery_vehicle_battery-128.png" vertex="1" parent="1">
          <mxGeometry x="284" y="500" width="78" height="78" as="geometry" />
        </mxCell>
        <mxCell id="4yeaxxSt-B0u1ZguV_Wh-5" value="" style="shape=image;html=1;verticalAlign=top;verticalLabelPosition=bottom;labelBackgroundColor=#ffffff;imageAspect=0;aspect=fixed;image=https://cdn3.iconfinder.com/data/icons/energy-and-power-glyph-24-px/24/Automotive_battery_battery_charging_car_battery_truck_battery_vehicle_battery-128.png" vertex="1" parent="1">
          <mxGeometry x="362" y="500" width="78" height="78" as="geometry" />
        </mxCell>
        <mxCell id="4yeaxxSt-B0u1ZguV_Wh-6" value="" style="shape=image;html=1;verticalAlign=top;verticalLabelPosition=bottom;labelBackgroundColor=#ffffff;imageAspect=0;aspect=fixed;image=https://cdn3.iconfinder.com/data/icons/energy-and-power-glyph-24-px/24/Automotive_battery_battery_charging_car_battery_truck_battery_vehicle_battery-128.png" vertex="1" parent="1">
          <mxGeometry x="440" y="500" width="78" height="78" as="geometry" />
        </mxCell>
      </root>
    </mxGraphModel>
  </diagram>
</mxfile>
